# xmcd
#
# Track frame offsets: 
#        150
#        24763
#        41438
#        63271
#        83051
#        110910
#        132105
#        150486
#        166912
#        195774
#
# Disc length: 3014 seconds
#
# Revision: 0
# Processed by: cddbd v1.5PL3 Copyright (c) Steve Scherf et al.
# Submitted via: ExactAudioCopy v0.95a3
#
DISCID=6b0bc40a
DTITLE=Aryans - Yeh Hawa Kehti Hai Kya
DYEAR=2000
DGENRE=Fusion
TTITLE0=Yeh Hawa Kehti Hai Kya
TTITLE1=Mastana
TTITLE2=Kahan Gaye Woh Din
TTITLE3=Na Na Na
TTITLE4=Kho Gaye Kahan
TTITLE5=O Meri Mehbooba
TTITLE6=O Meri Tina
TTITLE7=Jee Chahta
TTITLE8=Aankhon Mein
TTITLE9=She Is Amazing
EXTD=
EXTT0=
EXTT1=
EXTT2=
EXTT3=
EXTT4=
EXTT5=
EXTT6=
EXTT7=
EXTT8=
EXTT9=
PLAYORDER=
